<svg width="215" height="46" viewBox="0 0 215 46" fill="none" xmlns="http://www.w3.org/2000/svg">
<path d="M46 26.8333V46H53.6667V26.8333C53.6667 23.7833 54.8783 20.8583 57.0349 18.7016C59.1916 16.5449 62.1167 15.3333 65.1667 15.3333H69V7.66667H65.1667C60.0834 7.66667 55.2082 9.68601 51.6138 13.2805C48.0193 16.8749 46 21.75 46 26.8333Z" fill="black"/>
<path d="M98.0822 18.6868L103.5 13.2532C100.832 10.5706 97.4297 8.74285 93.7247 8.00178C90.0196 7.26072 86.1786 7.63966 82.6885 9.09057C79.1985 10.5415 76.2166 12.999 74.1209 16.1516C72.0251 19.3042 70.9099 23.0099 70.9167 26.7989C70.9099 30.588 72.0251 34.2937 74.1209 37.4463C76.2166 40.5989 79.1985 43.0564 82.6885 44.5073C86.1786 45.9582 90.0196 46.3372 93.7247 45.5961C97.4297 44.855 100.832 43.0273 103.5 40.3447L98.0822 34.9111C97.0343 36.0389 95.7706 36.9436 94.3666 37.571C92.9625 38.1984 91.4469 38.5358 89.91 38.563C88.3731 38.5902 86.8465 38.3066 85.4213 37.7293C83.996 37.1519 82.7013 36.2926 81.6144 35.2025C80.5275 34.1124 79.6707 32.814 79.095 31.3846C78.5193 29.9552 78.2366 28.4241 78.2637 26.8828C78.2908 25.3414 78.6272 23.8213 79.2528 22.4132C79.8784 21.0051 80.7804 19.7377 81.905 18.6868C84.0609 16.5556 86.9664 15.3609 89.9936 15.3609C93.0207 15.3609 95.9263 16.5556 98.0822 18.6868Z" fill="black"/>
<path d="M167.517 19.1667V46H175.183V30.6667H186.683V23H175.183V19.1667C175.183 16.1167 176.395 13.1916 178.552 11.0349C180.708 8.87827 183.633 7.66667 186.683 7.66667V0C181.6 0 176.725 2.01934 173.13 5.61379C169.536 9.20823 167.517 14.0834 167.517 19.1667Z" fill="black"/>
<path d="M214.667 38.3333C211.617 38.3333 208.692 37.1217 206.535 34.9651C204.378 32.8084 203.167 29.8833 203.167 26.8333V23H214.667V15.3333H203.167V0H195.5V26.8333C195.5 31.9166 197.519 36.7918 201.114 40.3862C204.708 43.9807 209.583 46 214.667 46V38.3333Z" fill="black"/>
<path d="M116.917 0H109.25V46H116.917V0Z" fill="black"/>
<path d="M19.1667 46C15.3759 46 11.6702 44.8759 8.51825 42.7698C5.3663 40.6638 2.90966 37.6703 1.45898 34.1681C0.00830461 30.6658 -0.371259 26.8121 0.368291 23.0941C1.10784 19.3761 2.93329 15.961 5.6138 13.2805C8.2943 10.5999 11.7095 8.7745 15.4274 8.03495C19.1454 7.2954 22.9992 7.67496 26.5014 9.12564C30.0037 10.5763 32.9971 13.033 35.1032 16.1849C37.2092 19.3368 38.3333 23.0425 38.3333 26.8333V46H30.6667V26.8333C30.6667 24.5588 29.9922 22.3354 28.7286 20.4443C27.4649 18.5531 25.6689 17.0791 23.5675 16.2087C21.4662 15.3383 19.1539 15.1106 16.9231 15.5543C14.6924 15.998 12.6433 17.0933 11.0349 18.7016C9.42664 20.3099 8.33137 22.359 7.88764 24.5898C7.44391 26.8206 7.67165 29.1328 8.54206 31.2342C9.41247 33.3355 10.8865 35.1316 12.7776 36.3952C14.6688 37.6589 16.8922 38.3333 19.1667 38.3333V46Z" fill="black"/>
<path d="M160.617 30.6667C158.841 39.4153 151.106 46 141.833 46C132.561 46 124.826 39.4153 123.05 30.6667H130.988C132.566 35.1332 136.826 38.3333 141.833 38.3333C146.841 38.3333 151.1 35.1332 152.679 30.6667H160.617Z" fill="black"/>
<path d="M160.617 23H152.679C151.1 18.5334 146.841 15.3333 141.833 15.3333C136.826 15.3333 132.566 18.5334 130.988 23H123.05C124.826 14.2514 132.561 7.66667 141.833 7.66667C151.106 7.66667 158.841 14.2514 160.617 23Z" fill="black"/>
</svg>
